<svg width="20" height="25" viewBox="0 0 20 25" fill="none" xmlns="http://www.w3.org/2000/svg">
<path d="M18.8889 0H1.11111C0.816426 0 0.533811 0.119724 0.325437 0.332833C0.117063 0.545943 0 0.834981 0 1.13636V23.8636C0 24.165 0.117063 24.4541 0.325437 24.6672C0.533811 24.8803 0.816426 25 1.11111 25H18.8889C19.1836 25 19.4662 24.8803 19.6746 24.6672C19.8829 24.4541 20 24.165 20 23.8636V1.13636C20 0.834981 19.8829 0.545943 19.6746 0.332833C19.4662 0.119724 19.1836 0 18.8889 0ZM17.7778 22.7273H2.22222V2.27273H17.7778V22.7273ZM6.66667 8.52273C6.66667 7.84847 6.86216 7.18936 7.22844 6.62874C7.59471 6.06812 8.1153 5.63116 8.72439 5.37314C9.33348 5.11511 10.0037 5.0476 10.6503 5.17914C11.2969 5.31068 11.8908 5.63537 12.357 6.11214C12.8232 6.58891 13.1407 7.19635 13.2693 7.85765C13.3979 8.51895 13.3319 9.2044 13.0796 9.82733C12.8273 10.4503 12.4001 10.9827 11.8519 11.3573C11.3037 11.7319 10.6593 11.9318 10 11.9318C9.11595 11.9318 8.2681 11.5726 7.64298 10.9333C7.01786 10.294 6.66667 9.42687 6.66667 8.52273ZM4.44444 18.75C4.44444 17.2431 5.02976 15.7979 6.07163 14.7323C7.1135 13.6668 8.52658 13.0682 10 13.0682C11.4734 13.0682 12.8865 13.6668 13.9284 14.7323C14.9702 15.7979 15.5556 17.2431 15.5556 18.75C15.5556 19.0514 15.4385 19.3404 15.2301 19.5535C15.0217 19.7666 14.7391 19.8864 14.4444 19.8864C14.1498 19.8864 13.8671 19.7666 13.6588 19.5535C13.4504 19.3404 13.3333 19.0514 13.3333 18.75C13.3333 17.8459 12.9821 16.9787 12.357 16.3394C11.7319 15.7001 10.8841 15.3409 10 15.3409C9.11595 15.3409 8.2681 15.7001 7.64298 16.3394C7.01786 16.9787 6.66667 17.8459 6.66667 18.75C6.66667 19.0514 6.5496 19.3404 6.34123 19.5535C6.13286 19.7666 5.85024 19.8864 5.55556 19.8864C5.26087 19.8864 4.97826 19.7666 4.76988 19.5535C4.56151 19.3404 4.44444 19.0514 4.44444 18.75Z" fill="#FFBF00"/>
</svg>
