<svg width="35" height="45" viewBox="0 0 35 45" fill="none" xmlns="http://www.w3.org/2000/svg">
<circle cx="17.1882" cy="5.18826" r="5" transform="rotate(177.8 17.1882 5.18826)" fill="#BCB907"/>
<path fill-rule="evenodd" clip-rule="evenodd" d="M4.375 10C1.95891 10 0 11.9589 0 14.375V37.3437C0 39.7598 2.06172 40.9673 4.375 41.7187L16.4062 45V13.2812C10.9244 11.8112 4.375 10 4.375 10ZM30.625 10C30.625 10 24.2944 11.7434 18.5401 13.2812H18.5937V45C24.7373 43.3605 30.625 41.7187 30.625 41.7187C32.8705 41.138 35 39.7598 35 37.3437V14.375C35 11.9589 33.0411 10 30.625 10Z" fill="#BCB907"/>
</svg>
