<svg width="30" height="20" viewBox="0 0 30 20" fill="none" xmlns="http://www.w3.org/2000/svg">
<path fill-rule="evenodd" clip-rule="evenodd" d="M28.125 16.6667C28.125 16.8358 28.0884 16.9958 28.0359 17.1483L19.6875 9.16667L28.125 3.33333V16.6667ZM3.33375 18.2883L11.7937 10.275L15 12.4292L18.0675 10.2617L26.6663 18.2883C26.5322 18.3158 3.46781 18.3158 3.33375 18.2883ZM1.875 16.6667V3.33333L10.3125 9.16667L1.96406 17.1483C1.91156 16.9958 1.875 16.8358 1.875 16.6667ZM27.1875 1.66667L15 10L2.8125 1.66667H27.1875ZM26.25 0H3.75C1.67906 0 0 1.4925 0 3.33333V16.6667C0 18.5075 1.67906 20 3.75 20H26.25C28.3209 20 30 18.5075 30 16.6667V3.33333C30 1.4925 28.3209 0 26.25 0Z" fill="#FFBF00"/>
</svg>
