<svg width="30" height="30" viewBox="0 0 30 30" fill="none" xmlns="http://www.w3.org/2000/svg">
<path d="M0 3.78369V26.2163C0 28.3337 1.66627 30 3.78369 30H26.2163C27.2527 30 28.2429 29.5042 28.8743 28.8743C29.5503 28.1982 30 27.342 30 26.2163V3.78369C30 1.66627 28.3337 0 26.2163 0H3.78369C2.65795 0 1.80176 0.451161 1.12574 1.12574C0.494403 1.75708 0 2.74732 0 3.78369ZM4.05468 6.75587C4.05468 5.31447 5.22654 4.05324 6.66795 4.05324C8.15404 4.05324 9.37059 5.31447 9.37059 6.75587C9.37059 8.24197 8.15404 9.41383 6.66795 9.41383C5.22654 9.41383 4.05468 8.24197 4.05468 6.75587ZM11.3064 25.2693V11.5313C11.3064 11.2156 11.6221 10.946 11.8469 10.946H15.6753C16.2158 10.946 16.2158 11.5774 16.2158 11.9824C17.2969 10.9014 18.6936 10.6304 20.135 10.6304C23.6492 10.6304 25.9006 12.2966 25.9006 15.991V25.2707C25.9006 25.5864 25.6297 25.856 25.3601 25.856H21.3962C21.0806 25.856 20.8557 25.5403 20.8557 25.2707V16.8918C20.8557 15.4951 20.4507 14.7297 18.8738 14.7297C16.8918 14.7297 16.396 16.0357 16.396 17.7927V25.2707C16.396 25.5864 16.0803 25.856 15.7647 25.856H11.8455C11.6206 25.856 11.305 25.5403 11.305 25.2707L11.3064 25.2693ZM4.14405 25.2693V11.5313C4.14405 11.2156 4.45971 10.946 4.68457 10.946H8.60376C8.96411 10.946 9.18897 11.1709 9.18897 11.5313V25.2693C9.18897 25.585 8.91798 25.8545 8.60376 25.8545H4.68457C4.41359 25.8545 4.14405 25.5388 4.14405 25.2693Z" fill="#FFBF00"/>
</svg>
